<svg width="18" height="14" viewBox="0 0 18 14" fill="none" xmlns="http://www.w3.org/2000/svg">
<path d="M5.66064 14C12.4531 14 16.1683 8.61332 16.1683 3.94201C16.1683 3.78901 16.1683 3.6367 16.1575 3.48508C16.8803 2.98467 17.5042 2.36507 18 1.65529C17.326 1.94116 16.611 2.12864 15.8789 2.21146C16.6498 1.76968 17.2268 1.07484 17.5025 0.25624C16.7776 0.667998 15.9845 0.958185 15.1574 1.11428C14.6006 0.547548 13.8642 0.172275 13.0621 0.0465293C12.2601 -0.0792164 11.4371 0.0515763 10.7205 0.418668C10.0039 0.785759 9.43367 1.36868 9.09806 2.07723C8.76245 2.78579 8.68016 3.58046 8.86392 4.33829C7.39566 4.26784 5.95929 3.90261 4.64806 3.26632C3.33683 2.63004 2.18004 1.73692 1.2528 0.644941C0.780546 1.42314 0.635904 2.34438 0.848325 3.22108C1.06075 4.09778 1.61426 4.86402 2.39616 5.3638C1.80845 5.34713 1.23356 5.19537 0.72 4.92134C0.72 4.93582 0.72 4.95098 0.72 4.96614C0.720233 5.78229 1.01539 6.57323 1.5554 7.20483C2.09542 7.83642 2.84705 8.26976 3.6828 8.43137C3.13911 8.5733 2.56866 8.59405 2.01528 8.49202C2.25127 9.19442 2.7107 9.80865 3.32933 10.2488C3.94796 10.689 4.69484 10.933 5.46552 10.9469C4.15781 11.9307 2.54236 12.4647 0.87912 12.4631C0.58529 12.4626 0.291747 12.4455 0 12.4121C1.68886 13.4495 3.65394 13.9998 5.66064 13.9972" fill="#7F8494"/>
</svg>
