<svg width="22" height="22" viewBox="0 0 22 22" fill="none" xmlns="http://www.w3.org/2000/svg">
<path fill-rule="evenodd" clip-rule="evenodd" d="M11.0074 2C6.02656 2 2 6.12498 2 11.2281C2 15.3074 4.57996 18.7604 8.15904 19.9825C8.60652 20.0744 8.77043 19.7839 8.77043 19.5396C8.77043 19.3257 8.75568 18.5924 8.75568 17.8283C6.25002 18.3784 5.72824 16.7283 5.72824 16.7283C5.32557 15.6588 4.72893 15.3839 4.72893 15.3839C3.90883 14.8186 4.78867 14.8186 4.78867 14.8186C5.69837 14.8797 6.17572 15.7658 6.17572 15.7658C6.98089 17.1713 8.27833 16.7742 8.8003 16.5297C8.87478 15.9338 9.11355 15.5213 9.36706 15.2922C7.36863 15.0783 5.26602 14.2838 5.26602 10.7392C5.26602 9.73078 5.6237 8.90578 6.19047 8.26416C6.10105 8.03504 5.7878 7.0876 6.28008 5.81955C6.28008 5.81955 7.04062 5.57505 8.75549 6.76679C9.48969 6.56479 10.2469 6.46203 11.0074 6.46117C11.768 6.46117 12.5433 6.56823 13.2592 6.76679C14.9743 5.57505 15.7348 5.81955 15.7348 5.81955C16.2271 7.0876 15.9137 8.03504 15.8242 8.26416C16.4059 8.90578 16.7489 9.73078 16.7489 10.7392C16.7489 14.2838 14.6463 15.0629 12.6329 15.2922C12.9611 15.5824 13.2443 16.1324 13.2443 17.0033C13.2443 18.2408 13.2295 19.234 13.2295 19.5394C13.2295 19.7839 13.3936 20.0744 13.8409 19.9827C17.42 18.7602 20 15.3074 20 11.2281C20.0147 6.12498 15.9734 2 11.0074 2Z" fill="#F5F7FA"/>
</svg>
