<svg width="17" height="18" viewBox="0 0 17 18" fill="none" xmlns="http://www.w3.org/2000/svg">
<path d="M0.798096 2.01565C0.798096 1.37078 1.33412 0.847691 1.99537 0.847691H15.8026C16.4638 0.847691 16.9998 1.37078 16.9998 2.01565V15.9843C16.9998 16.6294 16.4638 17.1522 15.8026 17.1522H1.99537C1.33412 17.1522 0.798096 16.6294 0.798096 15.9843V2.01565Z" fill="white"/>
<path fill-rule="evenodd" clip-rule="evenodd" d="M5.70971 14.4965V7.13405H3.26258V14.4965H5.70971V14.4965ZM4.48613 6.12884C5.3395 6.12884 5.87064 5.56349 5.87064 4.85696C5.85474 4.13453 5.3395 3.58487 4.50232 3.58487C3.66523 3.58487 3.11792 4.13453 3.11792 4.85696C3.11792 5.56349 3.64895 6.12884 4.47018 6.12884H4.48609H4.48613Z" fill="#343741"/>
<path fill-rule="evenodd" clip-rule="evenodd" d="M7.06372 14.4965H9.51083V10.385C9.51083 10.1649 9.52673 9.94512 9.59135 9.78782C9.76825 9.34818 10.1709 8.89285 10.8469 8.89285C11.7324 8.89285 12.0866 9.568 12.0866 10.5577V14.4965H14.5336V10.275C14.5336 8.01356 13.3263 6.96129 11.7163 6.96129C10.3961 6.96129 9.81655 7.69918 9.49455 8.20179H9.51089V7.13405H7.06379C7.0959 7.82489 7.06379 14.4965 7.06379 14.4965H7.06372Z" fill="#343741"/>
</svg>
