<?xml version="1.0" encoding="UTF-8"?>
<svg id="Layer_1" data-name="Layer 1" xmlns="http://www.w3.org/2000/svg" viewBox="0 0 192 192">
  <defs>
    <style>
      .cls-1 {
        fill: #fff;
      }

      .cls-1, .cls-2 {
        stroke-width: 0px;
      }

      .cls-2 {
        fill: #eb1f1f;
      }
    </style>
  </defs>
  <rect class="cls-2" x="-.35" y="-.18" width="192" height="192"/>
  <g>
    <g>
      <path class="cls-1" d="m54.26,101.19c.89-.11,1.73-.39,2.51-.82,1.91-1.07,3.01-2.89,3.1-5.15v-.2h2.66c-.16-1.34-.68-2.57-1.43-3.62l-2.71,1.73c.82,1.3.93,2.71.3,4.14-.73,1.73-2.46,3.21-4.42,3.92"/>
      <path class="cls-1" d="m62.57,95.43h-2.3c-.16,2.28-1.34,4.21-3.3,5.28-1.12.61-2.39.93-3.69.93-1,0-2.03-.18-3.01-.55,1.18.73,2.51,1.14,3.87,1.14h.02c2.46,0,4.69-1.3,5.94-3.51l.11-.18,1.53.98c.55-1.07.84-2.25.84-3.53,0-.18-.02-.36-.02-.57"/>
      <path class="cls-1" d="m54.17,102.65h0c-2.48,0-4.81-1.23-6.44-3.32,1.25,2.64,3.94,4.49,7.06,4.49,2.89,0,5.42-1.57,6.76-3.92l-1.21-.75c-1.34,2.19-3.62,3.51-6.17,3.51"/>
      <path class="cls-1" d="m54.78,104.22c-4.53,0-8.22-3.67-8.22-8.22s3.67-8.22,8.22-8.22,8.22,3.67,8.22,8.22-3.69,8.22-8.22,8.22m0-19.52c-6.24,0-11.3,5.06-11.3,11.3s5.06,11.3,11.3,11.3,11.3-5.06,11.3-11.3-5.06-11.3-11.3-11.3"/>
    </g>
    <g>
      <path class="cls-1" d="m144.96,100.14v-1.94h-4.33v-1.94h3.87v-1.8h-3.87v-1.78h4.1v-1.89h-6.29v9.34h6.51Zm-11.75-5.9c-.09.16-.23.27-.39.34s-.34.14-.52.16c-.2.02-.39.05-.57.05h-1.07v-2.19h1.21c.16,0,.34.02.52.05.18.02.34.07.5.16.14.07.27.18.36.32.09.14.14.32.14.52-.02.25-.07.43-.18.59m2.89,5.9l-2.44-4.01c.61-.18,1.07-.5,1.43-.93.34-.43.52-.96.52-1.59,0-.55-.09-.98-.3-1.34-.2-.36-.48-.66-.82-.87-.34-.23-.73-.36-1.14-.48-.43-.09-.87-.14-1.32-.14h-3.55v9.34h2.21v-3.69h.77l2.03,3.71h2.6Zm-12.73-3.55c-.14.36-.32.66-.55.91s-.52.46-.84.59c-.32.14-.68.23-1.07.23s-.75-.07-1.07-.23c-.32-.14-.61-.34-.84-.59s-.41-.57-.55-.91c-.14-.36-.2-.75-.2-1.16s.07-.77.18-1.14c.14-.34.32-.66.55-.91s.52-.46.84-.59c.32-.14.68-.23,1.07-.23s.75.07,1.09.23c.32.14.61.34.84.59s.41.55.55.91c.14.34.2.73.2,1.14,0,.41-.07.8-.2,1.16m2.23-3.19c-.25-.59-.61-1.12-1.07-1.53-.46-.43-1-.75-1.62-.98s-1.3-.34-2.03-.34-1.41.11-2.03.34c-.61.23-1.16.55-1.62.98-.46.43-.8.93-1.07,1.53-.25.59-.39,1.28-.39,2.03s.14,1.41.39,2.03.61,1.14,1.07,1.57.98.77,1.62,1c.61.23,1.3.36,2.03.36s1.41-.11,2.03-.36c.61-.23,1.16-.57,1.62-1s.8-.96,1.07-1.57c.25-.61.39-1.28.39-2.03s-.14-1.43-.39-2.03m-11.14,5.44l-1.57-1.48c-.2.27-.48.5-.8.68-.34.18-.73.27-1.18.27-.39,0-.75-.07-1.07-.2-.32-.14-.61-.34-.84-.59s-.41-.55-.55-.91c-.14-.34-.2-.73-.2-1.16,0-.41.07-.8.2-1.14s.32-.64.55-.91c.23-.25.52-.46.84-.59.32-.14.68-.23,1.09-.23.36,0,.71.07,1.05.2.34.14.61.36.82.64l1.53-1.53c-.39-.46-.91-.8-1.55-1.02s-1.28-.34-1.94-.34c-.71,0-1.37.11-1.98.34s-1.16.55-1.62.98c-.46.43-.82.93-1.07,1.55s-.39,1.28-.39,2.03.14,1.39.39,2,.61,1.14,1.05,1.57c.46.43.98.77,1.59,1s1.28.36,2,.36c.8,0,1.48-.14,2.1-.41.61-.27,1.12-.64,1.55-1.12m-10.77,1.3v-1.94h-4.33v-1.94h3.87v-1.8h-3.87v-1.78h4.1v-1.89h-6.29v9.34h6.51Zm-9-7.42v-1.94h-7.54v1.94h2.64v7.4h2.25v-7.4h2.64Zm-10-1.91h-2.28v9.34h2.28v-9.34Zm-5.01.91c-.41-.39-.89-.66-1.43-.87-.55-.18-1.09-.3-1.62-.3-.43,0-.87.05-1.3.16s-.82.27-1.16.52c-.34.23-.61.55-.82.91-.2.36-.32.82-.32,1.32,0,.43.07.77.2,1.07.14.3.32.55.55.75.23.2.48.39.77.5.3.14.57.25.89.34.3.09.59.18.82.27.25.09.43.18.61.27.16.09.3.2.39.34.09.11.14.27.14.46s-.05.34-.11.48-.16.23-.27.32c-.11.07-.25.14-.41.18s-.32.05-.48.05c-.36,0-.75-.09-1.12-.27-.36-.18-.68-.43-.91-.71l-1.48,1.5c.41.43.93.75,1.55,1,.61.23,1.28.34,1.94.34.46,0,.91-.07,1.32-.18.43-.11.82-.32,1.14-.57.34-.25.59-.57.8-.98.2-.39.3-.87.3-1.39,0-.46-.09-.87-.27-1.16-.18-.32-.41-.57-.71-.77-.27-.2-.59-.39-.93-.5-.34-.14-.68-.25-.98-.34-.23-.07-.41-.14-.59-.2-.18-.07-.32-.14-.46-.23-.14-.07-.23-.18-.3-.27-.07-.11-.09-.23-.09-.39,0-.18.05-.34.14-.46.09-.11.18-.2.32-.3.11-.07.25-.14.41-.16.16-.02.3-.05.46-.05.3,0,.59.07.91.23.32.14.57.34.75.59l1.37-1.53Z"/>
      <path class="cls-1" d="m147.4,91.67v-.3h.16s.09,0,.14.02.07.05.07.11-.02.11-.07.11c-.05.02-.09.02-.16.02h-.14v.02Zm-.18.59h.18v-.43h.14l.25.43h.23l-.27-.46c.07-.02.14-.05.18-.09.05-.05.07-.11.07-.18,0-.05,0-.11-.02-.14-.02-.05-.05-.07-.09-.09-.05-.02-.07-.05-.11-.05s-.09-.02-.14-.02h-.36v1.02h-.05Zm-.36-.82c.05-.09.09-.18.16-.25.07-.07.16-.14.25-.16.09-.05.2-.07.3-.07.11,0,.2.02.3.07.09.05.18.09.25.16.07.07.14.16.16.25.05.09.07.2.07.3,0,.11-.02.2-.07.3-.05.09-.09.18-.16.25-.07.07-.16.14-.25.16-.09.05-.2.07-.3.07-.11,0-.2-.02-.3-.07s-.18-.09-.25-.16c-.07-.07-.14-.16-.16-.25-.05-.09-.07-.2-.07-.3,0-.11.02-.2.07-.3m-.14.66c.05.11.11.2.2.3.09.09.18.14.3.2.11.05.23.07.36.07s.25-.02.36-.07.2-.11.3-.2.16-.18.2-.3c.05-.11.07-.23.07-.36s-.02-.25-.07-.36c-.05-.11-.11-.2-.2-.3s-.18-.16-.3-.2-.23-.07-.36-.07-.25.02-.36.07c-.11.05-.2.11-.3.2s-.16.18-.2.3c-.05.11-.07.23-.07.36s.02.25.07.36"/>
    </g>
  </g>
</svg>